<?xml version="1.0" encoding="UTF-8"?>
<svg width="1000" height="1000" viewBox="0 0 1000 1000" xmlns="http://www.w3.org/2000/svg" xmlns:xlink="http://www.w3.org/1999/xlink"><g class="drawing-elements"><path style="fill:#ffffff; stroke:none;" d="M232 830C232.663 837.939 240.097 843.08 246.83 846.115C263.47 853.616 285.117 843.502 288.66 825C290.467 815.562 289 804.599 289 795L289 736L289 550L543 550C543.214 560.358 546.74 570.069 549.161 580C551.426 589.296 552.221 598.95 555.366 608C557.692 614.694 558.844 620.793 564.591 625.544C578.526 637.063 602.279 633 619 633L743 633C759.653 633 782.365 636.906 797 627.147C809.28 618.957 810 605.431 810 592L810 550L810 354L810 315C810 302.346 809.897 290.512 800.421 281.174C791.655 272.536 781.394 273 770 273L726 273L621 273L593 273C589.602 273 584.298 273.949 581.317 271.972C574.962 267.759 579.655 254.867 574 250C574.684 244.575 572.28 238.402 571.2 233C568.299 218.492 566.411 199.882 551 192.97C542.864 189.32 532.692 190 524 190L480 190L318 190L270 190C261.495 190 250.819 189.394 243.286 194.067C228.365 203.325 229 217.566 229 233L229 318L229 691L229 795L229 819C229.007 823.067 228.539 827.365 232 830z"/><path style="fill:#000000; stroke:none;" d="M289 250L289 298C298.603 297.426 308.395 297.449 318 298C316.161 290.276 317 281.9 317 274C317 266.1 316.161 257.724 318 250L289 250M370 250L370 298C376.265 296.743 383.312 297.691 389.715 297.826C397.786 297.995 405.949 297.315 414 298C414 282.74 411.461 264.866 415 250L370 250M466 250L466 298C481.014 296.972 496.065 298.88 511 297L511 263C511 259.757 512.139 253.359 509.258 251.028C506.534 248.824 500.278 250 497 250L466 250z"/><path style="fill:#feffa9; stroke:none;" d="M414.333 257.667C414.278 257.722 414.222 258.778 414.667 258.333C414.722 258.278 414.778 257.222 414.333 257.667z"/><path style="fill:#feffa8; stroke:none;" d="M414.333 263.667C414.278 263.722 414.222 264.778 414.667 264.333C414.722 264.278 414.778 263.222 414.333 263.667z"/><path style="fill:#feff7f; stroke:none;" d="M414 266L415 267L414 266z"/><path style="fill:#bdffff; stroke:none;" d="M414.333 269.667C414.278 269.722 414.222 270.778 414.667 270.333C414.722 270.278 414.778 269.222 414.333 269.667z"/><path style="fill:#fdff7f; stroke:none;" d="M414 273L415 274L414 273z"/><path style="fill:#acffa9; stroke:none;" d="M414.333 275.667C414.278 275.722 414.222 276.778 414.667 276.333C414.722 276.278 414.778 275.222 414.333 275.667z"/><path style="fill:#a9ffaa; stroke:none;" d="M414 283L415 284L414 283z"/><path style="fill:#fdbfbd; stroke:none;" d="M414 296L415 297L414 296z"/><path style="fill:#000000; stroke:none;" d="M321 301L321 345L366 345L366 301L321 301M418 301C421.257 314.682 419 330.961 419 345L463 345L463 301L418 301M515 303C518.026 316.129 515.11 331.581 515 345L560 345L560 333C554.732 333 549.119 333.537 544 332.061C529.973 328.017 525.24 314.517 522 302C519.623 302.572 517.442 302.891 515 303M613 333L613 347C620.12 345.305 627.719 346 635 346C642.281 346 649.88 345.305 657 347C657 342.239 656.892 337.655 658 333L613 333M709 333L709 347C715.513 345.449 722.341 346 729 346C735.97 346 743.183 345.377 750 347L750 333L709 333M289 349L289 394L317 394C317 379.656 314.672 362.978 318 349L289 349M370 349L370 394L414 394C414 379.656 411.672 362.978 415 349L370 349M466 349L466 394L512 394C510.305 386.88 511 379.281 511 372C511 364.409 510.233 356.422 512 349L466 349M563 350L563 395L608 395L608 350L563 350M660 350L660 395L705 395C703.305 387.88 704 380.281 704 373C704 365.409 703.233 357.422 705 350L660 350z"/><path style="fill:#80fdff; stroke:none;" d="M414 377L415 378L414 377z"/><path style="fill:#feffaa; stroke:none;" d="M414 384L415 385L414 384z"/><path style="fill:#bdc0fe; stroke:none;" d="M413 394L414 395L413 394z"/><path style="fill:#000000; stroke:none;" d="M321 398L321 443L366 443L366 398L321 398M418 398C419.767 405.422 419 413.409 419 421C419 428.281 419.695 435.88 418 443L463 443L463 398L418 398M515 398L515 443L560 443L560 398L515 398z"/><path style="fill:#acffff; stroke:none;" d="M617 398L618 399L617 398z"/><path style="fill:#000000; stroke:none;" d="M656 398C650.564 399.607 644.64 399 639 399L612 399L612 443L657 443L657 413C657 408.191 657.875 402.469 656 398M749 398C736.799 401.606 720.718 399 708 399C709.404 409.313 709.028 420.478 708.441 430.83C708.2 435.068 708.997 438.764 708 443L750 443L750 413C750 408.191 750.875 402.469 749 398M289 447L289 491L318 491C314.743 477.318 317 461.039 317 447L289 447M370 447L370 491L415 491C411.743 477.318 414 461.039 414 447L370 447M466 447L466 491L512 491C510.305 483.88 511 476.281 511 469C511 461.719 510.305 454.12 512 447L466 447M563 447L563 491L608 492L608 447L563 447M660 447L660 492L705 492C703.305 484.88 704 477.281 704 470C704 462.409 703.233 454.422 705 447L660 447z"/><path style="fill:#80fe7f; stroke:none;" d="M414 479L415 480L414 479z"/><path style="fill:#000000; stroke:none;" d="M612 495L612 540C626.344 540 643.022 537.672 657 541L657 495L612 495M708 495C709.433 501.573 708.818 509.258 708.709 516C708.58 523.964 709.201 532.101 708 540C721.428 540 736.91 537.884 750 541L750 495L708 495z"/><path style="fill:#ffffaa; stroke:none;" d="M708 540L709 541L708 540z"/><path style="fill:#000000; stroke:none;" d="M660 544L660 572L705 572C702.993 563.568 702.993 552.432 705 544L660 544z"/></g></svg>